<svg width="512" height="512" viewBox="0 0 512 512" fill="none" xmlns="http://www.w3.org/2000/svg">
<g clip-path="url(#clip0_1_2)">
<path d="M0 0H512V512H0V0Z" fill="white"/>
<mask id="mask0_1_2" style="mask-type:luminance" maskUnits="userSpaceOnUse" x="0" y="0" width="512" height="512">
<path d="M512 0H0V512H512V0Z" fill="white"/>
</mask>
<g mask="url(#mask0_1_2)">
<path d="M255.985 134.938C189.132 134.938 134.938 189.132 134.938 255.984C134.938 322.837 189.132 377.031 255.985 377.031C322.837 377.031 377.031 322.837 377.031 255.984C377.031 189.132 322.837 134.938 255.985 134.938ZM255.985 192.927C290.804 192.927 319.042 221.165 319.042 255.984C319.042 290.803 290.804 319.023 255.985 319.023C221.166 319.023 192.946 290.803 192.946 255.984C192.946 221.165 221.166 192.927 255.985 192.927Z" fill="#005B9E"/>
<path d="M255.966 11.3771C124.281 11.3771 16.9296 115.301 11.3771 245.548C12.6902 245.606 69.5497 247.99 79.7662 222.907C80.38 221.4 80.9363 220.29 81.4746 219.344C98.4405 138.559 170.095 77.8724 255.966 77.8724C342.246 77.8724 414.228 139.114 430.755 220.476C431.294 221.424 431.844 222.543 432.464 224.058C442.609 248.964 498.51 246.788 500.592 246.699C495.631 115.909 388.041 11.3771 255.966 11.3771ZM21.1814 266.668C15.5066 266.508 11.7053 266.672 11.3771 266.687C16.9124 396.949 124.269 500.856 255.966 500.856C387.275 500.856 494.423 397.561 500.536 267.837C498.29 267.742 442.591 265.61 432.464 290.479C431.538 292.752 430.73 294.141 429.975 295.174C412.154 374.823 341.033 434.364 255.966 434.364C170.108 434.364 98.4541 373.73 81.4746 292.965C80.937 292.019 80.3804 290.836 79.7662 289.328C72.1037 270.515 38.2059 267.149 21.1814 266.668Z" fill="#0A2840"/>
</g>
</g>
<defs>
<clipPath id="clip0_1_2">
<rect width="512" height="512" fill="white"/>
</clipPath>
</defs>
</svg>
